<svg id="Layer_1" data-name="Layer 1" xmlns="http://www.w3.org/2000/svg" viewBox="0 0 270 270"><defs><style>.cls-1,.cls-4{fill:#069;}.cls-1{fill-rule:evenodd;}.cls-2{fill:#396;}.cls-3{fill:#900;}.cls-5{fill:#484848;}</style></defs><path class="cls-1" d="M189.25,85.85c-1.56,0-3.31.1-5.27.29a44.82,44.82,0,0,1-5,.3,49.75,49.75,0,0,1-5.06-.3c-2.18-.19-4.07-.29-5.65-.29-.59,0-.88.46-.88,1.37s.19,1.36.59,1.36q6.53.3,6.53,5.08a11.73,11.73,0,0,1-1,4.38L160.26,129l2.16,4.86,15.72-35.42q2.45-5.55,4.73-7.52a10.22,10.22,0,0,1,5.89-2.32,1,1,0,0,0,.81-.48,1.81,1.81,0,0,0,.37-1.08C189.94,86.24,189.7,85.85,189.25,85.85Z"/><path class="cls-1" d="M141.89,88.58q6.53.3,6.53,4.78A10.51,10.51,0,0,1,147,98l-.26.5,2.16,4.85,2.69-5q3.45-6,5.77-7.74a12.21,12.21,0,0,1,6.11-2.1c.71,0,1.07-.52,1.07-1.56,0-.78-.19-1.17-.58-1.17-1.65,0-3.72.12-6.19.34-1.94.17-3.43.25-4.43.25-1.4,0-3.19-.09-5.36-.3s-4.19-.29-5.75-.29c-.2,0-.39.15-.59.45a1.64,1.64,0,0,0-.29.92C141.3,88.13,141.49,88.58,141.89,88.58Z"/><path class="cls-1" d="M117,128.87l-14.18-32a7.49,7.49,0,0,1-.78-2.92,4.41,4.41,0,0,1,1.88-3.7,9.62,9.62,0,0,1,5.15-1.66c.31,0,.48-.45.48-1.36s-.26-1.37-.78-1.37q-3.27,0-7.51.29c-2.69.21-5,.3-7,.3s-4-.09-6.23-.3c-2.38-.19-4.65-.29-6.83-.29-.52,0-.78.46-.78,1.37a1.43,1.43,0,0,0,.35,1,.93.93,0,0,0,.73.41,13.19,13.19,0,0,1,7.06,2.56q2.55,2.07,4.83,7.28l17.94,41.16Z"/><path class="cls-2" d="M153.78,154.2A1.29,1.29,0,0,0,155,155h10.7a1.26,1.26,0,0,0,1.15-1.79L140.69,94.63a15.89,15.89,0,0,0-3.37-4.78,13.24,13.24,0,0,0-5.18-2.94,27.51,27.51,0,0,0-8.28-1,33.58,33.58,0,0,0-9.61,1.38,1.26,1.26,0,0,0-.87,1.41l1.48,9.08a1.23,1.23,0,0,0,1.24,1.06,1.16,1.16,0,0,0,.42-.07,16.28,16.28,0,0,1,5.25-.87,12.16,12.16,0,0,1,3.89.52,6.39,6.39,0,0,1,2.53,1.52,8.51,8.51,0,0,1,1.66,2.42c.45,1,.93,2.08,1.43,3.33l1.05,2.67-23.85,44.93a1.2,1.2,0,0,0,.13,1.12,1.26,1.26,0,0,0,1.06.58h12.62a1.24,1.24,0,0,0,1.15-.75l.07-.14,16-29.66Z"/><path class="cls-3" d="M76.45,68.4a73.88,73.88,0,0,1,117.19-.35l16.64-11.17a93.89,93.89,0,0,0-150.65.61Z"/><path class="cls-4" d="M203.69,85.4a73.58,73.58,0,0,1,5.49,27.93c0,40.8-33.2,74.46-74,74.46s-74-33.66-74-74.46A73.75,73.75,0,0,1,66.52,85.8l-17-11a93.47,93.47,0,0,0-8.29,38.58c0,51.83,42.17,94.46,94,94.46s94-42.63,94-94.46a93.47,93.47,0,0,0-8.61-39.27Z"/><path class="cls-5" d="M34.84,228.15l-7.05,21.53H22.44L17.71,235.1l-4.9,14.58H7.49L.42,228.15H5.59l4.86,15.14,5.07-15.14h4.62l4.92,15.26,5-15.26Z"/><path class="cls-5" d="M37.76,228.15h5v21.53h-5Z"/><path class="cls-5" d="M55.85,241.22l-2.89,3v5.44H48V228.15h5v10.06l9.54-10.06H68l-8.92,9.6,9.44,11.93H62.74Z"/><path class="cls-5" d="M70.92,228.15h5v21.53h-5Z"/><path class="cls-5" d="M86.15,232.15v5.69h10v4h-10v7.84h-5V228.15H97.44v4Z"/><path class="cls-5" d="M100.79,240.21V228.15h5V240c0,4.1,1.78,5.79,4.8,5.79s4.79-1.69,4.79-5.79V228.15h4.93v12.06c0,6.34-3.63,9.84-9.76,9.84S100.79,246.55,100.79,240.21Z"/><path class="cls-5" d="M145.12,228.15v21.53H141L130.3,236.61v13.07h-4.93V228.15h4.13l10.7,13.07V228.15Z"/><path class="cls-5" d="M149,238.92c0-6.49,5-11.14,11.69-11.14a11.1,11.1,0,0,1,8.86,3.82l-3.2,3A7,7,0,0,0,161,232a6.9,6.9,0,0,0,0,13.79,6.85,6.85,0,0,0,5.42-2.56l3.2,3a11.07,11.07,0,0,1-8.89,3.84C154,250.05,149,245.41,149,238.92Z"/><path class="cls-5" d="M177.33,232.21h-6.89v-4.06h18.77v4.06h-6.9v17.47h-5Z"/><path class="cls-5" d="M192,228.15h5v21.53h-5Z"/><path class="cls-5" d="M200.92,238.92c0-6.4,5-11.14,11.79-11.14s11.78,4.71,11.78,11.14-5,11.13-11.78,11.13S200.92,245.31,200.92,238.92Zm18.53,0a6.74,6.74,0,1,0-6.74,6.89A6.58,6.58,0,0,0,219.45,238.92Z"/><path class="cls-5" d="M248.15,228.15v21.53h-4.1l-10.73-13.07v13.07H228.4V228.15h4.12l10.7,13.07V228.15Z"/><path class="cls-5" d="M251.71,247.56l1.7-3.75a12.66,12.66,0,0,0,7.1,2.24c2.95,0,4.16-1,4.16-2.3,0-4-12.52-1.27-12.52-9.26,0-3.66,2.95-6.71,9.07-6.71a14.47,14.47,0,0,1,7.48,1.91l-1.54,3.78a12.14,12.14,0,0,0-6-1.69c-2.95,0-4.09,1.11-4.09,2.46,0,4,12.52,1.23,12.52,9.14,0,3.6-3,6.67-9.14,6.67C257.07,250.05,253.62,249,251.71,247.56Z"/></svg>